REM DIRINDEX 1\2\4\8,1\2\4\9,1\2\4\10,1\2\5\11,1\2\5\12,1\2\5\13,1\2\5\14,1\2\5\15,1\3\6\16,1\3\6\17,1\3\6\18,1\3\7\19,1\3\7\20,1\3\7\21,1\3\7\22,1\3\7\23
REM DIRNAME "folder01","folder02","folder03","folder04","folder05","folder06","folder07","folder08","folder09","folder10","folder11","folder12","folder13","folder14","folder15","folder16","folder17","folder18","folder19","folder20","folder21","folder22","folder23"
TITLE ""
FILE "LR_black_phrase_E_C02.mp3" MP3
  TRACK 01 AUDIO
    TITLE "0:"
    INDEX 01 00:00:00
  TRACK 02 AUDIO
    TITLE "16:cjc171_09861"
    INDEX 01 00:00:14
  TRACK 03 AUDIO
    TITLE "0:"
    INDEX 01 00:01:31
  TRACK 04 AUDIO
    TITLE "17:cjc171_09862"
    INDEX 01 00:01:63
  TRACK 05 AUDIO
    TITLE "0:"
    INDEX 01 00:03:63
  TRACK 06 AUDIO
    TITLE "18:cjc171_09863"
    INDEX 01 00:04:41
  TRACK 07 AUDIO
    TITLE "0:"
    INDEX 01 00:06:42
  TRACK 08 AUDIO
    TITLE "16:cjc171_09864"
    INDEX 01 00:07:48
  TRACK 09 AUDIO
    TITLE "0:"
    INDEX 01 00:08:73
  TRACK 10 AUDIO
    TITLE "17:cjc171_09865"
    INDEX 01 00:09:25
  TRACK 11 AUDIO
    TITLE "0:"
    INDEX 01 00:11:61
  TRACK 12 AUDIO
    TITLE "18:cjc171_09866"
    INDEX 01 00:12:39
  TRACK 13 AUDIO
    TITLE "0:"
    INDEX 01 00:15:02
  TRACK 14 AUDIO
    TITLE "16:cjc171_09867"
    INDEX 01 00:16:05
  TRACK 15 AUDIO
    TITLE "0:"
    INDEX 01 00:17:22
  TRACK 16 AUDIO
    TITLE "17:cjc171_09868"
    INDEX 01 00:17:46
  TRACK 17 AUDIO
    TITLE "0:"
    INDEX 01 00:19:43
  TRACK 18 AUDIO
    TITLE "18:cjc171_09869"
    INDEX 01 00:20:17
  TRACK 19 AUDIO
    TITLE "0:"
    INDEX 01 00:22:14
  TRACK 20 AUDIO
    TITLE "16:cjc171_09870"
    INDEX 01 00:23:23
  TRACK 21 AUDIO
    TITLE "0:"
    INDEX 01 00:24:46
  TRACK 22 AUDIO
    TITLE "17:cjc171_09871"
    INDEX 01 00:24:73
  TRACK 23 AUDIO
    TITLE "0:"
    INDEX 01 00:26:63
  TRACK 24 AUDIO
    TITLE "18:cjc171_09872"
    INDEX 01 00:27:40
  TRACK 25 AUDIO
    TITLE "0:"
    INDEX 01 00:29:30
  TRACK 26 AUDIO
    TITLE "16:cjc171_09873"
    INDEX 01 00:30:35
  TRACK 27 AUDIO
    TITLE "0:"
    INDEX 01 00:31:48
  TRACK 28 AUDIO
    TITLE "17:cjc171_09874"
    INDEX 01 00:32:02
  TRACK 29 AUDIO
    TITLE "0:"
    INDEX 01 00:33:72
  TRACK 30 AUDIO
    TITLE "18:cjc171_09875"
    INDEX 01 00:34:52
  TRACK 31 AUDIO
    TITLE "0:"
    INDEX 01 00:36:47
  TRACK 32 AUDIO
    TITLE "16:cjc171_09876"
    INDEX 01 00:37:53
  TRACK 33 AUDIO
    TITLE "0:"
    INDEX 01 00:38:64
  TRACK 34 AUDIO
    TITLE "17:cjc171_09877"
    INDEX 01 00:39:20
  TRACK 35 AUDIO
    TITLE "0:"
    INDEX 01 00:41:17
  TRACK 36 AUDIO
    TITLE "18:cjc171_09878"
    INDEX 01 00:41:70
  TRACK 37 AUDIO
    TITLE "0:"
    INDEX 01 00:43:67
  TRACK 38 AUDIO
    TITLE "16:cjc171_09879"
    INDEX 01 00:44:72
  TRACK 39 AUDIO
    TITLE "0:"
    INDEX 01 00:46:01
  TRACK 40 AUDIO
    TITLE "17:cjc171_09880"
    INDEX 01 00:46:40
  TRACK 41 AUDIO
    TITLE "0:"
    INDEX 01 00:48:52
  TRACK 42 AUDIO
    TITLE "18:cjc171_09881"
    INDEX 01 00:49:32
  TRACK 43 AUDIO
    TITLE "0:"
    INDEX 01 00:51:45
  TRACK 44 AUDIO
    TITLE "16:cjc171_09882"
    INDEX 01 00:52:50
  TRACK 45 AUDIO
    TITLE "0:"
    INDEX 01 00:53:54
  TRACK 46 AUDIO
    TITLE "17:cjc171_09883"
    INDEX 01 00:54:10
  TRACK 47 AUDIO
    TITLE "0:"
    INDEX 01 00:57:22
  TRACK 48 AUDIO
    TITLE "18:cjc171_09884"
    INDEX 01 00:58:02
  TRACK 49 AUDIO
    TITLE "0:"
    INDEX 01 01:01:14
  TRACK 50 AUDIO
    TITLE "16:cjc171_09885"
    INDEX 01 01:02:19
  TRACK 51 AUDIO
    TITLE "0:"
    INDEX 01 01:03:23
  TRACK 52 AUDIO
    TITLE "17:cjc171_09886"
    INDEX 01 01:03:52
  TRACK 53 AUDIO
    TITLE "0:"
    INDEX 01 01:06:11
  TRACK 54 AUDIO
    TITLE "18:cjc171_09887"
    INDEX 01 01:06:64
  TRACK 55 AUDIO
    TITLE "0:"
    INDEX 01 01:09:25
  TRACK 56 AUDIO
    TITLE "16:cjc171_09888"
    INDEX 01 01:10:27
  TRACK 57 AUDIO
    TITLE "0:"
    INDEX 01 01:11:59
  TRACK 58 AUDIO
    TITLE "17:cjc171_09889"
    INDEX 01 01:12:16
  TRACK 59 AUDIO
    TITLE "0:"
    INDEX 01 01:14:62
  TRACK 60 AUDIO
    TITLE "18:cjc171_09890"
    INDEX 01 01:15:41
  TRACK 61 AUDIO
    TITLE "0:"
    INDEX 01 01:18:14
  TRACK 62 AUDIO
    TITLE "16:cjc171_09891"
    INDEX 01 01:19:20
  TRACK 63 AUDIO
    TITLE "0:"
    INDEX 01 01:20:49
  TRACK 64 AUDIO
    TITLE "17:cjc171_09892"
    INDEX 01 01:20:74
  TRACK 65 AUDIO
    TITLE "0:"
    INDEX 01 01:23:33
  TRACK 66 AUDIO
    TITLE "18:cjc171_09893"
    INDEX 01 01:24:13
  TRACK 67 AUDIO
    TITLE "0:"
    INDEX 01 01:26:47
  TRACK 68 AUDIO
    TITLE "16:cjc171_09894"
    INDEX 01 01:27:51
  TRACK 69 AUDIO
    TITLE "0:"
    INDEX 01 01:28:73
  TRACK 70 AUDIO
    TITLE "17:cjc171_09895"
    INDEX 01 01:29:30
  TRACK 71 AUDIO
    TITLE "0:"
    INDEX 01 01:31:54
  TRACK 72 AUDIO
    TITLE "18:cjc171_09896"
    INDEX 01 01:32:38
  TRACK 73 AUDIO
    TITLE "0:"
    INDEX 01 01:34:62
  TRACK 74 AUDIO
    TITLE "16:cjc171_09897"
    INDEX 01 01:35:70
  TRACK 75 AUDIO
    TITLE "0:"
    INDEX 01 01:37:08
  TRACK 76 AUDIO
    TITLE "17:cjc171_09898"
    INDEX 01 01:37:37
  TRACK 77 AUDIO
    TITLE "0:"
    INDEX 01 01:39:32
  TRACK 78 AUDIO
    TITLE "18:cjc171_09899"
    INDEX 01 01:40:12
  TRACK 79 AUDIO
    TITLE "0:"
    INDEX 01 01:42:07
  TRACK 80 AUDIO
    TITLE "16:cjc171_09900"
    INDEX 01 01:43:12
  TRACK 81 AUDIO
    TITLE "0:"
    INDEX 01 01:44:53
  TRACK 82 AUDIO
    TITLE "17:cjc171_09901"
    INDEX 01 01:45:07
  TRACK 83 AUDIO
    TITLE "0:"
    INDEX 01 01:47:32
  TRACK 84 AUDIO
    TITLE "18:cjc171_09902"
    INDEX 01 01:48:10
  TRACK 85 AUDIO
    TITLE "0:"
    INDEX 01 01:50:34
  TRACK 86 AUDIO
    TITLE "16:cjc171_09903"
    INDEX 01 01:51:37
  TRACK 87 AUDIO
    TITLE "0:"
    INDEX 01 01:53:15
  TRACK 88 AUDIO
    TITLE "17:cjc171_09904"
    INDEX 01 01:53:44
  TRACK 89 AUDIO
    TITLE "0:"
    INDEX 01 01:55:59
  TRACK 90 AUDIO
    TITLE "18:cjc171_09905"
    INDEX 01 01:56:37
  TRACK 91 AUDIO
    TITLE "0:"
    INDEX 01 01:58:51
  TRACK 92 AUDIO
    TITLE "16:cjc171_09906"
    INDEX 01 01:59:54
  TRACK 93 AUDIO
    TITLE "0:"
    INDEX 01 02:00:68
  TRACK 94 AUDIO
    TITLE "17:cjc171_09907"
    INDEX 01 02:01:12
  TRACK 95 AUDIO
    TITLE "0:"
    INDEX 01 02:03:03
  TRACK 96 AUDIO
    TITLE "18:cjc171_09908"
    INDEX 01 02:03:52
  TRACK 97 AUDIO
    TITLE "0:"
    INDEX 01 02:05:43
  TRACK 98 AUDIO
    TITLE "16:cjc171_09909"
    INDEX 01 02:06:49
  TRACK 99 AUDIO
    TITLE "0:"
    INDEX 01 02:07:64
  TRACK 100 AUDIO
    TITLE "17:cjc171_09910"
    INDEX 01 02:08:18
  TRACK 101 AUDIO
    TITLE "0:"
    INDEX 01 02:10:44
  TRACK 102 AUDIO
    TITLE "18:cjc171_09911"
    INDEX 01 02:11:24
  TRACK 103 AUDIO
    TITLE "0:"
    INDEX 01 02:13:53
  TRACK 104 AUDIO
    TITLE "16:cjc171_09912"
    INDEX 01 02:14:58
  TRACK 105 AUDIO
    TITLE "0:"
    INDEX 01 02:15:67
  TRACK 106 AUDIO
    TITLE "17:cjc171_09913"
    INDEX 01 02:16:22
  TRACK 107 AUDIO
    TITLE "0:"
    INDEX 01 02:18:54
  TRACK 108 AUDIO
    TITLE "18:cjc171_09914"
    INDEX 01 02:19:32
  TRACK 109 AUDIO
    TITLE "0:"
    INDEX 01 02:21:64
  TRACK 110 AUDIO
    TITLE "16:cjc171_09915"
    INDEX 01 02:22:67
  TRACK 111 AUDIO
    TITLE "0:"
    INDEX 01 02:24:09
  TRACK 112 AUDIO
    TITLE "17:cjc171_09916"
    INDEX 01 02:24:31
  TRACK 113 AUDIO
    TITLE "0:"
    INDEX 01 02:26:51
  TRACK 114 AUDIO
    TITLE "18:cjc171_09917"
    INDEX 01 02:27:23
  TRACK 115 AUDIO
    TITLE "0:"
    INDEX 01 02:29:44
  TRACK 116 AUDIO
    TITLE "16:cjc171_09918"
    INDEX 01 02:30:45
  TRACK 117 AUDIO
    TITLE "0:"
    INDEX 01 02:32:03
  TRACK 118 AUDIO
    TITLE "17:cjc171_09919"
    INDEX 01 02:32:32
  TRACK 119 AUDIO
    TITLE "0:"
    INDEX 01 02:34:55
  TRACK 120 AUDIO
    TITLE "18:cjc171_09920"
    INDEX 01 02:35:33
  TRACK 121 AUDIO
    TITLE "0:"
    INDEX 01 02:37:53
